<svg width="24" height="24" viewBox="0 0 24 24" fill="none" xmlns="http://www.w3.org/2000/svg">
<path d="M14.9998 19C14.8682 19.0008 14.7377 18.9756 14.6159 18.9258C14.4941 18.876 14.3833 18.8027 14.2898 18.71L8.28982 12.71C8.10356 12.5227 7.99902 12.2692 7.99902 12.005C7.99902 11.7408 8.10356 11.4874 8.28982 11.3L14.2898 5.30003C14.4811 5.1362 14.7272 5.05059 14.9789 5.06032C15.2305 5.07004 15.4693 5.17437 15.6474 5.35246C15.8255 5.53056 15.9298 5.7693 15.9395 6.02097C15.9492 6.27265 15.8636 6.51873 15.6998 6.71003L10.4098 12L15.6998 17.29C15.8402 17.4293 15.9362 17.6071 15.9756 17.8009C16.015 17.9947 15.996 18.1958 15.9211 18.3789C15.8462 18.5619 15.7186 18.7186 15.5547 18.8292C15.3907 18.9397 15.1976 18.9992 14.9998 19Z" fill="white"/>
</svg>
