<svg width="24" height="24" viewBox="0 0 24 24" fill="none" xmlns="http://www.w3.org/2000/svg">
<path d="M18.9678 9.02753C18.9686 9.15913 18.9433 9.2896 18.8936 9.41143C18.8438 9.53327 18.7705 9.64409 18.6778 9.73753L12.6778 15.7375C12.4904 15.9238 12.237 16.0283 11.9728 16.0283C11.7086 16.0283 11.4552 15.9238 11.2678 15.7375L5.2678 9.73753C5.10397 9.54623 5.01837 9.30015 5.02809 9.04847C5.03781 8.7968 5.14214 8.55806 5.32024 8.37996C5.49833 8.20187 5.73707 8.09754 5.98875 8.08782C6.24042 8.07809 6.4865 8.1637 6.6778 8.32753L11.9678 13.6175L17.2578 8.32753C17.3971 8.18711 17.5749 8.09113 17.7687 8.05175C17.9625 8.01236 18.1636 8.03133 18.3467 8.10626C18.5297 8.18119 18.6864 8.3087 18.797 8.47269C18.9075 8.63667 18.967 8.82975 18.9678 9.02753Z" fill="white"/>
</svg>
