<svg width="24" height="24" viewBox="0 0 24 24" fill="none" xmlns="http://www.w3.org/2000/svg">
<g clip-path="url(#clip0_7638_1857)">
<path d="M15.9507 6.63554L8.46525 6.63554C8.20308 6.63098 7.95319 6.52364 7.7694 6.33662C7.58561 6.14961 7.48263 5.89789 7.48263 5.63569C7.48263 5.37348 7.58561 5.12176 7.7694 4.93475C7.95319 4.74774 8.20308 4.6404 8.46525 4.63584L18.3647 4.63584C18.4961 4.63573 18.6261 4.66151 18.7475 4.71172C18.8689 4.76193 18.9791 4.83557 19.072 4.92844C19.1649 5.02131 19.2385 5.13157 19.2887 5.25293C19.3389 5.37429 19.3647 5.50435 19.3646 5.63569L19.3646 15.5352C19.36 15.7974 19.2527 16.0472 19.0657 16.231C18.8787 16.4148 18.627 16.5178 18.3647 16.5178C18.1025 16.5178 17.8508 16.4148 17.6638 16.231C17.4768 16.0472 17.3695 15.7973 17.3649 15.5352L17.3649 8.04975L6.34393 19.0707C6.15639 19.2583 5.90204 19.3636 5.63682 19.3636C5.37161 19.3636 5.11725 19.2583 4.92972 19.0707C4.74218 18.8832 4.63682 18.6288 4.63682 18.3636C4.63682 18.0984 4.74218 17.844 4.92972 17.6565L15.9507 6.63554Z" fill="#AD7955"/>
</g>
<defs>
<clipPath id="clip0_7638_1857">
<rect width="24" height="24" fill="white"/>
</clipPath>
</defs>
</svg>
