<svg width="44" height="44" viewBox="0 0 44 44" fill="none" xmlns="http://www.w3.org/2000/svg">
<g clip-path="url(#clip0_87_628)">
<path d="M42.822 11.4267C42.4646 11.2175 42.058 11.1072 41.6439 11.1072C41.2297 11.1072 40.8231 11.2175 40.4657 11.4267L33.7562 15.3005V13.8044C33.7545 12.2448 33.1341 10.7496 32.0313 9.64678C30.9285 8.54398 29.4333 7.92365 27.8737 7.92188H5.88242C4.32284 7.92365 2.82764 8.54398 1.72485 9.64679C0.622064 10.7496 0.00175139 12.2448 0 13.8044L0 30.1951C0.00175139 31.7547 0.622064 33.2499 1.72485 34.3527C2.82764 35.4555 4.32284 36.0758 5.88242 36.0776H27.8733C29.433 36.0759 30.9283 35.4556 32.0312 34.3528C33.1341 33.25 33.7545 31.7547 33.7562 30.1951V28.6989L40.4662 32.5729C40.8243 32.7795 41.2306 32.8883 41.6441 32.8883C42.0576 32.8882 42.4639 32.7793 42.822 32.5725C43.1801 32.3657 43.4775 32.0684 43.6843 31.7102C43.891 31.3521 43.9999 30.9459 44 30.5324V13.4671C44.0025 13.053 43.8946 12.6458 43.6876 12.2872C43.4806 11.9286 43.1818 11.6316 42.822 11.4267ZM31.0056 30.1954C31.0046 31.0259 30.6743 31.8221 30.087 32.4094C29.4998 32.9967 28.7036 33.327 27.8731 33.3279H5.88242C5.05187 33.327 4.25562 32.9966 3.66837 32.4093C3.08112 31.8219 2.75084 31.0256 2.75 30.1951V13.8044C2.75093 12.9739 3.08125 12.1777 3.66849 11.5904C4.25573 11.0032 5.05193 10.6728 5.88242 10.6719H27.8733C28.7039 10.6727 29.5002 11.003 30.0876 11.5902C30.6749 12.1775 31.0053 12.9738 31.0062 13.8044L31.0056 30.1954ZM41.25 29.8503L33.7562 25.5232V18.4763L41.25 14.1492V29.8503Z" fill="white"/>
</g>
<defs>
<clipPath id="clip0_87_628">
<rect width="44" height="44" fill="white"/>
</clipPath>
</defs>
</svg>
