<svg width="24" height="24" viewBox="0 0 24 24" fill="none" xmlns="http://www.w3.org/2000/svg">
<path d="M13.6462 12L20.6587 4.98757C20.7673 4.87945 20.8534 4.75087 20.9119 4.60926C20.9705 4.46765 21.0004 4.31582 20.9999 4.16258C21.0018 4.00968 20.9726 3.85801 20.9139 3.7168C20.8552 3.5756 20.7684 3.44785 20.6587 3.34133C20.5522 3.23163 20.4244 3.14479 20.2832 3.08612C20.142 3.02744 19.9903 2.99817 19.8374 3.00009C19.6842 2.99959 19.5324 3.02949 19.3907 3.08807C19.2491 3.14664 19.1205 3.23273 19.0124 3.34133L12 10.3538L4.98757 3.34133C4.87945 3.23273 4.75087 3.14664 4.60926 3.08807C4.46765 3.02949 4.31582 2.99959 4.16258 3.00009C4.00968 2.99817 3.85801 3.02744 3.7168 3.08612C3.5756 3.14479 3.44785 3.23163 3.34133 3.34133C3.23163 3.44785 3.14479 3.5756 3.08612 3.7168C3.02744 3.85801 2.99817 4.00968 3.00009 4.16258C2.99959 4.31582 3.02949 4.46765 3.08807 4.60926C3.14664 4.75087 3.23273 4.87945 3.34133 4.98757L10.3538 12L3.34133 19.0124C3.23273 19.1205 3.14664 19.2491 3.08807 19.3907C3.02949 19.5324 2.99959 19.6842 3.00009 19.8374C2.99817 19.9903 3.02744 20.142 3.08612 20.2832C3.14479 20.4244 3.23163 20.5522 3.34133 20.6587C3.44785 20.7684 3.5756 20.8552 3.7168 20.9139C3.85801 20.9726 4.00968 21.0018 4.16258 20.9999C4.31582 21.0004 4.46765 20.9705 4.60926 20.9119C4.75087 20.8534 4.87945 20.7673 4.98757 20.6587L12 13.6462L19.0124 20.6587C19.1205 20.7673 19.2491 20.8534 19.3907 20.9119C19.5324 20.9705 19.6842 21.0004 19.8374 20.9999C20.1454 20.9989 20.4405 20.8761 20.6583 20.6583C20.8761 20.4405 20.9989 20.1454 20.9999 19.8374C21.0004 19.6842 20.9705 19.5324 20.9119 19.3907C20.8534 19.2491 20.7673 19.1205 20.6587 19.0124L13.6462 12Z" fill="#777777"/>
</svg>
