<svg width="24" height="24" viewBox="0 0 24 24" fill="none" xmlns="http://www.w3.org/2000/svg">
<path d="M5.32855 14.9629H8.54727L8.27809 16.3862C8.1427 17.0992 8.17644 17.8365 8.3763 18.5324C8.57616 19.2283 8.93593 19.8611 9.42355 20.3745C9.65035 20.6138 9.92772 20.7928 10.2328 20.8968C10.538 21.0007 10.8621 21.0266 11.1785 20.9724C11.495 20.9181 11.7947 20.7852 12.053 20.5847C12.3114 20.3841 12.5209 20.1216 12.6644 19.8188L14.3686 16.2134C14.6495 15.6344 15.0357 15.1196 15.5051 14.6985C15.5807 14.7821 15.6717 14.8486 15.7724 14.8941C15.873 14.9395 15.9814 14.9629 16.0909 14.9629H20.1818C20.3988 14.9629 20.6069 14.8719 20.7604 14.7098C20.9138 14.5477 21 14.3279 21 14.0987V2.86419C21 2.635 20.9138 2.41518 20.7604 2.25312C20.6069 2.09105 20.3988 2 20.1818 2H16.0909C15.9268 2.00083 15.7667 2.05377 15.6315 2.15194C15.4962 2.25011 15.392 2.38897 15.3325 2.55049L13.8949 2.04494C13.8116 2.01539 13.7243 2.00021 13.6364 2H7.59982C7.06085 2.00167 6.52957 2.13519 6.04764 2.39008C5.56571 2.64497 5.14623 3.01431 4.82209 3.46913C3.64327 5.13598 3.00434 7.15967 3 9.24021V12.5034C3.00043 13.1556 3.2459 13.7809 3.6825 14.242C4.11909 14.7032 4.71111 14.9624 5.32855 14.9629ZM16.9091 3.72839H19.3636V13.2345H16.9091V3.72839ZM4.63636 9.24021C4.63929 7.53301 5.16321 5.87228 6.13036 4.50443C6.30219 4.26334 6.52461 4.06762 6.78016 3.93266C7.0357 3.79771 7.31739 3.72719 7.60309 3.72666H13.5038L15.2727 4.35061V12.7514C14.2599 13.3967 13.4381 14.3282 12.9 15.4408L11.1982 19.0462C11.1706 19.1041 11.1305 19.1542 11.0811 19.1925C11.0316 19.2309 10.9743 19.2562 10.9138 19.2666C10.8533 19.277 10.7913 19.2721 10.7329 19.2522C10.6745 19.2324 10.6214 19.1982 10.578 19.1525C10.2814 18.8401 10.0626 18.455 9.94128 18.0316C9.81993 17.6081 9.79975 17.1595 9.88255 16.7259L10.3473 14.2715C10.3715 14.146 10.3691 14.0163 10.34 13.8918C10.311 13.7674 10.2561 13.6513 10.1793 13.5521C10.1026 13.4528 10.0059 13.3728 9.89625 13.3179C9.78662 13.263 9.66679 13.2345 9.54545 13.2345H5.32855C5.14497 13.2345 4.96891 13.1575 4.8391 13.0204C4.70929 12.8833 4.63636 12.6973 4.63636 12.5034V9.24021Z" fill="#BBBBBB"/>
</svg>
