<svg width="24" height="24" viewBox="0 0 24 24" fill="none" xmlns="http://www.w3.org/2000/svg">
<path d="M12 5.84961C18.6313 5.84961 21.9133 11.3962 22.0508 11.6338C22.1155 11.7455 22.1504 11.8714 22.1504 12C22.1504 12.1287 22.1155 12.2554 22.0508 12.3672C21.9097 12.6107 18.6273 18.1504 12 18.1504C5.36878 18.1504 2.08678 12.6038 1.94924 12.3662C1.8846 12.2545 1.84965 12.1286 1.84963 12C1.84963 11.8713 1.88452 11.7446 1.94924 11.6328C2.09039 11.3893 5.3727 5.84961 12 5.84961ZM12 7.34961C7.2092 7.34961 4.36451 10.8282 3.54397 11.998C4.36678 13.166 7.22294 16.6504 12 16.6504C16.7911 16.6504 19.6347 13.1706 20.4551 12.001C19.6313 10.8319 16.7756 7.34961 12 7.34961ZM12 8.25C14.1449 8.25 15.9004 9.92635 15.9004 12C15.9004 14.0737 14.1449 15.75 12 15.75C9.85519 15.75 8.09963 14.0737 8.09963 12C8.09963 9.92635 9.85519 8.25 12 8.25ZM12 9.75C10.6986 9.75 9.65041 10.7653 9.65041 12C9.65041 13.2347 10.6986 14.25 12 14.25C13.3015 14.25 14.3496 13.2347 14.3496 12C14.3496 10.7653 13.3015 9.75 12 9.75Z" fill="#EEEEEE" stroke="#EEEEEE" stroke-width="0.3"/>
</svg>
