<svg width="22" height="19" viewBox="0 0 22 19" fill="none" xmlns="http://www.w3.org/2000/svg">
<path fill-rule="evenodd" clip-rule="evenodd" d="M6.07133 2.5C5.12416 2.5 4.21577 2.87626 3.54602 3.54602C2.87626 4.21577 2.5 5.12416 2.5 6.07133C2.5 7.21342 2.9516 8.38952 3.73886 9.56284C4.52418 10.7333 5.59484 11.8272 6.7055 12.7777C7.81125 13.724 8.92313 14.4997 9.76163 15.0398C10.0602 15.2322 10.3225 15.3936 10.5355 15.5213C10.7486 15.3936 11.0109 15.2322 11.3094 15.0398C12.1479 14.4997 13.2598 13.724 14.3656 12.7777C15.4762 11.8272 16.5469 10.7333 17.3322 9.56284C18.1195 8.38952 18.5711 7.21342 18.5711 6.07133C18.5711 5.12416 18.1948 4.21577 17.525 3.54602C16.8553 2.87626 15.9469 2.5 14.9997 2.5C13.4442 2.5 12.2029 3.3335 11.6924 4.58063C11.5001 5.05028 11.043 5.35709 10.5355 5.35709C10.0281 5.35709 9.57094 5.05028 9.3787 4.58063C8.86819 3.3335 7.62685 2.5 6.07133 2.5ZM10.5355 16.964C9.9429 18.0646 9.9426 18.0644 9.94227 18.0642L9.93908 18.0625L9.93189 18.0586L9.90759 18.0453C9.88705 18.0341 9.85794 18.018 9.82081 17.9972C9.74657 17.9556 9.64022 17.8953 9.50633 17.8171C9.23871 17.6609 8.86022 17.433 8.4077 17.1415C7.50516 16.56 6.29566 15.7174 5.08003 14.6771C3.8693 13.641 2.61859 12.3802 1.66287 10.9558C0.709093 9.53428 0 7.87562 0 6.07133C0 4.46111 0.639656 2.91685 1.77825 1.77825C2.91685 0.639656 4.46111 0 6.07133 0C7.80538 0 9.41001 0.668089 10.5355 1.84654C11.6611 0.668089 13.2657 0 14.9997 0C16.6099 0 18.1542 0.639657 19.2928 1.77825C20.4314 2.91685 21.0711 4.46111 21.0711 6.07133C21.0711 7.87562 20.362 9.53428 19.4082 10.9558C18.4525 12.3802 17.2017 13.641 15.991 14.6771C14.7754 15.7174 13.5659 16.56 12.6634 17.1415C12.2108 17.433 11.8323 17.6609 11.5647 17.8171C11.4308 17.8953 11.3245 17.9556 11.2502 17.9972C11.2131 18.018 11.184 18.0341 11.1635 18.0453L11.1392 18.0586L11.132 18.0625L11.1296 18.0638C11.1293 18.0639 11.1282 18.0646 10.5355 16.964ZM10.5355 16.964L11.1282 18.0646C10.7582 18.2638 10.3122 18.2634 9.94227 18.0642L10.5355 16.964Z" fill="#AD7955"/>
</svg>
