<svg width="24" height="24" viewBox="0 0 24 24" fill="none" xmlns="http://www.w3.org/2000/svg">
<path d="M18.6715 9.0371H15.4527L15.7219 7.61377C15.8573 6.90078 15.8236 6.16348 15.6237 5.4676C15.4238 4.77172 15.0641 4.13889 14.5765 3.62552C14.3497 3.38618 14.0723 3.20717 13.7672 3.10322C13.462 2.99928 13.1379 2.97337 12.8215 3.02763C12.505 3.08189 12.2053 3.21476 11.947 3.41532C11.6886 3.61587 11.4791 3.87837 11.3356 4.18119L9.63136 7.78661C9.35053 8.36559 8.96434 8.88039 8.49491 9.30154C8.41926 9.21793 8.32834 9.15138 8.22765 9.10593C8.12696 9.06048 8.01859 9.03706 7.90909 9.0371H3.81818C3.60119 9.0371 3.39308 9.12814 3.23964 9.29021C3.0862 9.45228 3 9.67209 3 9.90129V21.1358C3 21.365 3.0862 21.5848 3.23964 21.7469C3.39308 21.909 3.60119 22 3.81818 22H7.90909C8.0732 21.9992 8.23328 21.9462 8.36854 21.8481C8.50379 21.7499 8.60797 21.611 8.66755 21.4495L10.1051 21.9551C10.1884 21.9846 10.2757 21.9998 10.3636 22H16.4002C16.9392 21.9983 17.4704 21.8648 17.9524 21.6099C18.4343 21.355 18.8538 20.9857 19.1779 20.5309C20.3567 18.864 20.9957 16.8403 21 14.7598V11.4966C20.9996 10.8444 20.7541 10.2191 20.3175 9.75797C19.8809 9.29682 19.2889 9.03755 18.6715 9.0371ZM7.09091 20.2716H4.63636V10.7655H7.09091V20.2716ZM19.3636 14.7598C19.3607 16.467 18.8368 18.1277 17.8696 19.4956C17.6978 19.7367 17.4754 19.9324 17.2198 20.0673C16.9643 20.2023 16.6826 20.2728 16.3969 20.2733H10.4962L8.72727 19.6494V11.2486C9.7401 10.6033 10.5619 9.67178 11.1 8.5592L12.8018 4.95378C12.8294 4.89591 12.8695 4.84577 12.9189 4.80746C12.9684 4.76915 13.0257 4.74376 13.0862 4.73339C13.1467 4.72302 13.2087 4.72795 13.2671 4.74778C13.3255 4.76761 13.3786 4.80178 13.422 4.84748C13.7186 5.15986 13.9374 5.54497 14.0587 5.96841C14.1801 6.39186 14.2003 6.84045 14.1175 7.27414L13.6527 9.72845C13.6285 9.85402 13.6309 9.98373 13.66 10.1082C13.689 10.2326 13.7439 10.3487 13.8207 10.4479C13.8974 10.5472 13.9941 10.6272 14.1037 10.6821C14.2134 10.737 14.3332 10.7655 14.4545 10.7655H18.6715C18.855 10.7655 19.0311 10.8425 19.1609 10.9796C19.2907 11.1167 19.3636 11.3027 19.3636 11.4966V14.7598Z" fill="white"/>
</svg>
