<svg width="24" height="24" viewBox="0 0 24 24" fill="none" xmlns="http://www.w3.org/2000/svg">
<path fill-rule="evenodd" clip-rule="evenodd" d="M13.293 4.29318C14.1483 3.46568 15.2945 3.00743 16.4845 3.01724C17.6745 3.02706 18.813 3.50415 19.6545 4.34565C20.496 5.18716 20.9731 6.32566 20.983 7.51568C20.9928 8.7057 20.5345 9.85192 19.707 10.7072L15.71 14.7042C15.2908 15.1309 14.7908 15.4697 14.2392 15.7008C13.6875 15.932 13.0953 16.0509 12.4972 16.0505C11.899 16.0501 11.307 15.9305 10.7556 15.6987C10.2043 15.4668 9.70466 15.1274 9.28601 14.7002C9.10477 14.51 9.00568 14.256 9.01016 13.9933C9.01463 13.7306 9.12232 13.4802 9.30994 13.2963C9.49756 13.1124 9.75003 13.0097 10.0128 13.0104C10.2755 13.0111 10.5274 13.1152 10.714 13.3002C10.9468 13.5378 11.2247 13.7267 11.5313 13.8555C11.838 13.9844 12.1673 14.0508 12.5 14.0508C12.8327 14.0508 13.162 13.9844 13.4687 13.8555C13.7754 13.7267 14.0532 13.5378 14.286 13.3002L14.293 13.2932L18.293 9.29318C18.7685 8.81765 19.0357 8.17269 19.0357 7.50018C19.0357 6.82768 18.7685 6.18272 18.293 5.70718C17.8175 5.23165 17.1725 4.9645 16.5 4.9645C15.8275 4.9645 15.1825 5.23165 14.707 5.70718L14.207 6.20718C14.1148 6.30269 14.0044 6.37888 13.8824 6.43129C13.7604 6.48369 13.6292 6.51128 13.4964 6.51243C13.3636 6.51359 13.232 6.48829 13.1091 6.43801C12.9862 6.38773 12.8745 6.31347 12.7806 6.21958C12.6867 6.12569 12.6125 6.01403 12.5622 5.89114C12.5119 5.76824 12.4866 5.63656 12.4878 5.50378C12.4889 5.371 12.5165 5.23978 12.5689 5.11778C12.6213 4.99578 12.6975 4.88543 12.793 4.79318L13.293 4.29318Z" fill="#EEEEEE"/>
<path fill-rule="evenodd" clip-rule="evenodd" d="M9.75698 8.30023C10.5883 7.95111 11.5054 7.85978 12.3892 8.03809C13.2731 8.21639 14.083 8.65611 14.714 9.30023C14.8952 9.49045 14.9943 9.74437 14.9898 10.0071C14.9854 10.2698 14.8777 10.5202 14.6901 10.7041C14.5024 10.888 14.25 10.9908 13.9872 10.99C13.7245 10.9893 13.4726 10.8852 13.286 10.7002C13.0532 10.4626 12.7753 10.2738 12.4687 10.1449C12.162 10.016 11.8327 9.94957 11.5 9.94957C11.1673 9.94957 10.838 10.016 10.5313 10.1449C10.2246 10.2738 9.94676 10.4626 9.71398 10.7002L9.70698 10.7072L5.70698 14.7072C5.23145 15.1828 4.9643 15.8277 4.9643 16.5002C4.9643 16.8332 5.02988 17.1629 5.15732 17.4706C5.28475 17.7782 5.47152 18.0578 5.70698 18.2932C5.94244 18.5287 6.22197 18.7155 6.52962 18.8429C6.83726 18.9703 7.16699 19.0359 7.49998 19.0359C8.17249 19.0359 8.81745 18.7688 9.29298 18.2932L9.79298 17.7932C9.88523 17.6977 9.99557 17.6215 10.1176 17.5691C10.2396 17.5167 10.3708 17.4891 10.5036 17.488C10.6364 17.4868 10.768 17.5121 10.8909 17.5624C11.0138 17.6127 11.1255 17.6869 11.2194 17.7808C11.3133 17.8747 11.3875 17.9864 11.4378 18.1093C11.4881 18.2322 11.5134 18.3638 11.5122 18.4966C11.5111 18.6294 11.4835 18.7606 11.4311 18.8826C11.3787 19.0046 11.3025 19.115 11.207 19.2072L10.707 19.7072C9.85643 20.5578 8.70284 21.0356 7.49998 21.0356C6.29712 21.0356 5.14353 20.5578 4.29298 19.7072C3.44243 18.8567 2.9646 17.7031 2.9646 16.5002C2.9646 15.2974 3.44243 14.1438 4.29298 13.2932L8.28898 9.29623C8.70747 8.87047 9.20649 8.53123 9.75698 8.30023Z" fill="#EEEEEE"/>
</svg>
