<svg width="24" height="24" viewBox="0 0 24 24" fill="none" xmlns="http://www.w3.org/2000/svg">
<path d="M19.875 19H4.125C3.50366 19 3 18.4776 3 17.8333C3 17.189 3.50366 16.6667 4.125 16.6667H19.875C20.4963 16.6667 21 17.189 21 17.8333C21 18.4776 20.4963 19 19.875 19ZM19.875 13.1666H4.125C3.50366 13.1666 3 12.6443 3 12C3 11.3557 3.50366 10.8334 4.125 10.8334H19.875C20.4963 10.8334 21 11.3557 21 12C21 12.6444 20.4963 13.1666 19.875 13.1666ZM19.875 7.33334H4.125C3.50366 7.33334 3 6.81103 3 6.16667C3 5.52231 3.50366 5 4.125 5H19.875C20.4963 5 21 5.52231 21 6.16667C21 6.81103 20.4963 7.33334 19.875 7.33334Z" fill="white"/>
</svg>
