<svg width="24" height="24" viewBox="0 0 24 24" fill="none" xmlns="http://www.w3.org/2000/svg">
<path d="M14.0498 20.1318V20.1816C14.0498 20.6771 13.8532 21.1526 13.5029 21.5029C13.1526 21.8533 12.6771 22.0498 12.1816 22.0498C11.6862 22.0498 11.2107 21.8533 10.8604 21.5029C10.5101 21.1526 10.3135 20.6771 10.3135 20.1816V20.1318H14.0498ZM12.1816 1.9502C12.4358 1.9502 12.6796 2.05088 12.8594 2.23047C13.0392 2.41033 13.1406 2.65481 13.1406 2.90918V3.84863C14.6489 4.07674 16.0274 4.83412 17.0273 5.9873C18.0368 7.15154 18.5939 8.64072 18.5957 10.1816V15.2393L20.1328 16.7764C20.2669 16.9105 20.3585 17.0816 20.3955 17.2676C20.4325 17.4536 20.4134 17.647 20.3408 17.8223C20.2682 17.9973 20.1449 18.1467 19.9873 18.252C19.8296 18.3573 19.6438 18.4141 19.4541 18.4141H4.90918C4.71952 18.414 4.53366 18.3573 4.37598 18.252C4.21835 18.1466 4.09599 17.9965 4.02344 17.8213C3.95089 17.6461 3.93177 17.4536 3.96875 17.2676C4.00573 17.0816 4.09644 16.9105 4.23047 16.7764L5.76758 15.2393V10.1816C5.76941 8.64072 6.32648 7.15154 7.33594 5.9873C8.33593 4.83412 9.71437 4.07674 11.2227 3.84863V2.90918C11.2227 2.65481 11.324 2.41033 11.5039 2.23047C11.6837 2.05089 11.9275 1.9502 12.1816 1.9502ZM12.1816 5.68652C10.9894 5.68652 9.84598 6.15993 9.00293 7.00293C8.15991 7.84595 7.68657 8.98944 7.68652 10.1816V15.6367C7.68638 15.8909 7.58503 16.1347 7.40527 16.3145L7.22461 16.4951H17.1387L16.958 16.3145C16.7782 16.1347 16.6769 15.8909 16.6768 15.6367V10.1816C16.6767 8.98944 16.2034 7.84595 15.3604 7.00293C14.5173 6.15992 13.3739 5.68653 12.1816 5.68652Z" fill="white" stroke="white" stroke-width="0.1"/>
</svg>
