<svg width="44" height="44" viewBox="0 0 44 44" fill="none" xmlns="http://www.w3.org/2000/svg">
<g clip-path="url(#clip0_87_621)">
<path d="M22.0008 24.846C20.5513 24.846 19.1344 24.4162 17.9292 23.6109C16.724 22.8056 15.7847 21.661 15.23 20.3218C14.6753 18.9827 14.5301 17.5091 14.8129 16.0875C15.0957 14.6658 15.7937 13.36 16.8186 12.335C17.8436 11.3101 19.1494 10.6121 20.5711 10.3293C21.9927 10.0465 23.4663 10.1917 24.8054 10.7463C26.1446 11.301 27.2892 12.2404 28.0945 13.4456C28.8998 14.6508 29.3296 16.0677 29.3296 17.5172C29.326 19.4598 28.5527 21.3218 27.179 22.6954C25.8054 24.069 23.9434 24.8423 22.0008 24.846ZM22.0008 13.1172C21.1306 13.1172 20.2799 13.3753 19.5563 13.8588C18.8328 14.3422 18.2688 15.0294 17.9358 15.8334C17.6027 16.6374 17.5156 17.5221 17.6854 18.3756C17.8552 19.2291 18.2742 20.0131 18.8896 20.6285C19.5049 21.2439 20.2889 21.6629 21.1424 21.8327C21.996 22.0025 22.8806 21.9153 23.6846 21.5823C24.4886 21.2493 25.1758 20.6853 25.6593 19.9617C26.1428 19.2382 26.4008 18.3875 26.4008 17.5172C26.4008 16.3503 25.9373 15.2311 25.1121 14.406C24.2869 13.5808 23.1678 13.1172 22.0008 13.1172ZM36.6721 26.3172C35.5109 26.3172 34.3757 25.9729 33.4102 25.3277C32.4447 24.6826 31.6921 23.7656 31.2478 22.6928C30.8034 21.62 30.6871 20.4395 30.9137 19.3006C31.1402 18.1616 31.6994 17.1155 32.5205 16.2944C33.3416 15.4733 34.3878 14.9141 35.5267 14.6875C36.6656 14.461 37.8461 14.5773 38.9189 15.0217C39.9917 15.466 40.9087 16.2186 41.5539 17.1841C42.199 18.1496 42.5433 19.2848 42.5433 20.446C42.5433 22.0031 41.9248 23.4965 40.8237 24.5976C39.7226 25.6987 38.2292 26.3172 36.6721 26.3172ZM36.6721 17.5172C36.0928 17.5172 35.5266 17.689 35.045 18.0108C34.5633 18.3326 34.1879 18.79 33.9663 19.3252C33.7446 19.8604 33.6866 20.4492 33.7996 21.0174C33.9126 21.5855 34.1916 22.1073 34.6012 22.5169C35.0107 22.9265 35.5326 23.2054 36.1007 23.3185C36.6688 23.4315 37.2577 23.3735 37.7929 23.1518C38.328 22.9301 38.7854 22.5547 39.1073 22.0731C39.4291 21.5915 39.6008 21.0252 39.6008 20.446C39.5972 19.6703 39.2875 18.9275 38.739 18.379C38.1906 17.8306 37.4477 17.5208 36.6721 17.5172ZM7.32959 26.3172C6.16837 26.3172 5.03322 25.9729 4.0677 25.3277C3.10217 24.6826 2.34964 23.7656 1.90526 22.6928C1.46088 21.62 1.34461 20.4395 1.57115 19.3006C1.7977 18.1616 2.35688 17.1155 3.17799 16.2944C3.9991 15.4733 5.04525 14.9141 6.18417 14.6875C7.32308 14.461 8.50359 14.5773 9.57642 15.0217C10.6493 15.466 11.5662 16.2186 12.2114 17.1841C12.8565 18.1496 13.2008 19.2848 13.2008 20.446C13.2008 22.0031 12.5823 23.4965 11.4812 24.5976C10.3801 25.6987 8.88674 26.3172 7.32959 26.3172ZM7.32959 17.5172C6.75034 17.5172 6.18409 17.689 5.70246 18.0108C5.22083 18.3326 4.84545 18.79 4.62378 19.3252C4.40211 19.8604 4.34411 20.4492 4.45711 21.0174C4.57012 21.5855 4.84906 22.1073 5.25865 22.5169C5.66824 22.9265 6.1901 23.2054 6.75822 23.3185C7.32634 23.4315 7.91521 23.3735 8.45037 23.1518C8.98553 22.9301 9.44294 22.5547 9.76476 22.0731C10.0866 21.5915 10.2583 21.0252 10.2583 20.446C10.2547 19.6703 9.945 18.9275 9.39653 18.379C8.84807 17.8306 8.10523 17.5208 7.32959 17.5172ZM30.8008 36.3135C30.4291 36.3108 30.0722 36.1675 29.8018 35.9124C29.5315 35.6574 29.3676 35.3094 29.3433 34.9385C29.2202 33.6791 28.6322 32.5108 27.6941 31.6616C26.7559 30.8125 25.535 30.3434 24.2696 30.346H19.7321C18.4667 30.3434 17.2458 30.8125 16.3076 31.6616C15.3695 32.5108 14.7815 33.6791 14.6583 34.9385C14.5879 35.2977 14.3861 35.6178 14.0923 35.8362C13.7985 36.0546 13.4338 36.1556 13.0696 36.1195C12.7053 36.0834 12.3675 35.9128 12.1223 35.641C11.877 35.3692 11.7419 35.0158 11.7433 34.6497C11.9543 32.6807 12.8878 30.8598 14.3634 29.5392C15.839 28.2185 17.7518 27.4919 19.7321 27.4997H24.2696C26.2627 27.4939 28.1863 28.2321 29.6638 29.5697C31.1414 30.9074 32.0666 32.7483 32.2583 34.7322C32.2772 34.9288 32.2562 35.1272 32.1967 35.3155C32.1373 35.5038 32.0405 35.6782 31.9122 35.8284C31.7839 35.9785 31.6267 36.1012 31.4499 36.1893C31.2731 36.2774 31.0805 36.329 30.8833 36.341L30.8008 36.3135ZM42.5296 35.3235C42.1579 35.3208 41.801 35.1775 41.5306 34.9224C41.2602 34.6674 41.0964 34.3194 41.0721 33.9485C41.0033 33.2289 40.6671 32.5613 40.1299 32.0776C39.5927 31.5939 38.8937 31.3293 38.1708 31.336H35.1458C34.8573 31.3373 34.5703 31.3789 34.2933 31.4597C34.1016 31.5671 33.8882 31.6302 33.6688 31.6443C33.4495 31.6584 33.2298 31.6232 33.0258 31.5412C32.8219 31.4593 32.6389 31.3327 32.4903 31.1707C32.3417 31.0087 32.2313 30.8155 32.1672 30.6053C32.103 30.3951 32.0868 30.1731 32.1197 29.9558C32.1527 29.7385 32.2338 29.5313 32.3573 29.3495C32.4808 29.1677 32.6435 29.0158 32.8334 28.9051C33.0232 28.7944 33.2355 28.7276 33.4546 28.7097C34.0037 28.5472 34.5732 28.4639 35.1458 28.4622H38.1708C39.6229 28.452 41.0263 28.9852 42.1051 29.9572C43.1839 30.9291 43.8601 32.2695 44.0008 33.7147C44.0197 33.9113 43.9987 34.1097 43.9392 34.298C43.8798 34.4863 43.783 34.6607 43.6547 34.8109C43.5264 34.961 43.3692 35.0837 43.1924 35.1718C43.0156 35.2599 42.823 35.3115 42.6258 35.3235H42.5296ZM1.47209 35.3235H1.37584C1.17872 35.3115 0.986038 35.2599 0.809277 35.1718C0.632517 35.0837 0.475296 34.961 0.346986 34.8109C0.218676 34.6607 0.121902 34.4863 0.0624327 34.298C0.00296343 34.1097 -0.0179841 33.9113 0.000838691 33.7147C0.141337 32.2719 0.815612 30.9335 1.89152 29.9618C2.96743 28.9902 4.3674 28.4554 5.81709 28.4622H8.84209C9.41474 28.4639 9.98422 28.5472 10.5333 28.7097C10.7524 28.7276 10.9647 28.7944 11.1546 28.9051C11.3444 29.0158 11.5071 29.1677 11.6306 29.3495C11.7541 29.5313 11.8353 29.7385 11.8682 29.9558C11.9011 30.1731 11.8849 30.3951 11.8208 30.6053C11.7566 30.8155 11.6462 31.0087 11.4976 31.1707C11.349 31.3327 11.1661 31.4593 10.9621 31.5412C10.7582 31.6232 10.5384 31.6584 10.3191 31.6443C10.0998 31.6302 9.88636 31.5671 9.69459 31.4597C9.41758 31.3789 9.13064 31.3373 8.84209 31.336H5.81709C5.09426 31.3293 4.3952 31.5939 3.85803 32.0776C3.32086 32.5613 2.98465 33.2289 2.91584 33.9485C2.89173 34.3171 2.72986 34.6631 2.46238 34.9178C2.19491 35.1726 1.84141 35.3174 1.47209 35.3235Z" fill="white"/>
</g>
<defs>
<clipPath id="clip0_87_621">
<rect width="44" height="44" fill="white"/>
</clipPath>
</defs>
</svg>
