<svg width="39" height="39" viewBox="0 0 39 39" fill="none" xmlns="http://www.w3.org/2000/svg">
<path d="M36.5992 14.3539C36.2536 14.3585 35.9235 14.4977 35.6791 14.7421C35.4348 14.9865 35.2955 15.3166 35.291 15.6621V26.1276L28.0001 17.7901C27.5368 17.2969 26.9775 16.9039 26.3565 16.6352C25.7355 16.3666 25.0661 16.228 24.3895 16.228C23.7129 16.228 23.0435 16.3666 22.4225 16.6352C21.8015 16.9039 21.2422 17.2969 20.7789 17.7901L15.773 23.5112L14.1334 21.5228C13.6816 20.9808 13.1162 20.5447 12.4771 20.2455C11.8381 19.9463 11.1412 19.7912 10.4356 19.7912C9.72998 19.7912 9.03301 19.9463 8.39401 20.2455C7.75501 20.5447 7.18959 20.9808 6.73779 21.5228L3.02256 26.0055V8.68516C3.02716 7.18312 3.62588 5.74392 4.68799 4.68181C5.7501 3.61971 7.1893 3.02098 8.69134 3.01638H22.6453C22.9922 3.01638 23.3249 2.87856 23.5703 2.63323C23.8156 2.3879 23.9534 2.05515 23.9534 1.7082C23.9534 1.36125 23.8156 1.02851 23.5703 0.783181C23.3249 0.53785 22.9922 0.400024 22.6453 0.400024H8.69134C6.49398 0.400024 4.38663 1.27292 2.83286 2.82668C1.2791 4.38045 0.406202 6.48781 0.406202 8.68516V29.616C0.397965 29.6445 0.397965 29.6748 0.406202 29.7032C0.429174 31.8854 1.3122 33.9705 2.86348 35.5054C4.41476 37.0404 6.50901 37.9013 8.69134 37.9012H29.6222C31.7956 37.8968 33.8802 37.0387 35.4267 35.5117C36.9733 33.9848 37.8579 31.9112 37.8899 29.7381V15.6621C37.8855 15.3195 37.7487 14.9919 37.508 14.7481C37.2674 14.5042 36.9417 14.3629 36.5992 14.3539ZM29.6222 35.2848H8.69134C7.2665 35.2803 5.89562 34.7393 4.85161 33.7696C3.8076 32.8 3.16704 31.4727 3.05745 30.0521L8.69134 23.1972C8.90236 22.9621 9.16052 22.7741 9.44902 22.6454C9.73752 22.5167 10.0499 22.4501 10.3658 22.4501C10.6817 22.4501 10.9941 22.5167 11.2826 22.6454C11.5711 22.7741 11.8293 22.9621 12.0403 23.1972L14.6741 26.3717C14.7949 26.5186 14.9466 26.637 15.1185 26.7184C15.2904 26.7999 15.4781 26.8423 15.6683 26.8427C16.0449 26.8219 16.3999 26.66 16.6625 26.3892L22.6627 19.5169C22.8762 19.2921 23.1332 19.113 23.418 18.9907C23.7029 18.8683 24.0097 18.8052 24.3197 18.8052C24.6298 18.8052 24.9365 18.8683 25.2214 18.9907C25.5063 19.113 25.7633 19.2921 25.9768 19.5169L35.1689 29.9823C35.0813 31.402 34.4616 32.7364 33.4334 33.7193C32.4053 34.7021 31.0444 35.2612 29.6222 35.2848Z" fill="#AD7955"/>
<path fill-rule="evenodd" clip-rule="evenodd" d="M36.6096 13.9541C37.0555 13.9658 37.4795 14.1496 37.7927 14.4671C38.106 14.7846 38.2841 15.211 38.2898 15.657L38.2899 15.6621L38.2899 29.744C38.2563 32.022 37.3289 34.1956 35.7077 35.7963C34.0865 37.397 31.9013 38.2966 29.623 38.3011H8.69134C6.40365 38.3013 4.20829 37.3988 2.58212 35.7897C0.965001 34.1896 0.040619 32.0193 0.00668662 29.7457C-0.00205595 29.6898 -0.00222553 29.6328 0.00617795 29.5769V8.68514C0.00617795 6.38169 0.921217 4.1726 2.55 2.54382C4.17877 0.915039 6.38787 0 8.69131 0H22.6452C23.0983 0 23.5327 0.179969 23.8531 0.500314C24.1734 0.82066 24.3534 1.25514 24.3534 1.70818C24.3534 2.16122 24.1734 2.5957 23.8531 2.91605C23.5327 3.23639 23.0983 3.41636 22.6452 3.41636H8.69193C7.29577 3.4208 5.95806 3.97738 4.97081 4.96463C3.98356 5.95188 3.42697 7.28959 3.42254 8.68575V24.896L6.42979 21.2675C6.91913 20.6805 7.53226 20.2073 8.22435 19.8832C8.91645 19.5592 9.67133 19.3912 10.4356 19.3912C11.1998 19.3912 11.9547 19.5592 12.6468 19.8832C13.3389 20.2073 13.9512 20.6796 14.4406 21.2666L14.442 21.2683L15.782 22.8934L20.4872 17.516C20.9878 16.9831 21.5925 16.5585 22.2636 16.2681C22.9347 15.9777 23.6582 15.8279 24.3895 15.8279C25.1207 15.8279 25.8442 15.9777 26.5153 16.2681C27.1864 16.5585 27.791 16.9832 28.2916 17.5162L28.3013 17.5266L34.891 25.0625V15.6569C34.8968 15.2071 35.0782 14.7773 35.3963 14.4592C35.7144 14.1411 36.1441 13.9598 36.5939 13.9539L36.6096 13.9541ZM35.291 26.1275L28 17.7901C27.5368 17.2969 26.9775 16.9039 26.3565 16.6352C25.7355 16.3665 25.0661 16.2279 24.3895 16.2279C23.7129 16.2279 23.0434 16.3665 22.4225 16.6352C21.8015 16.9039 21.2421 17.2969 20.7789 17.7901L15.7729 23.5112L14.1333 21.5227C13.6815 20.9808 13.1161 20.5447 12.4771 20.2455C11.8381 19.9463 11.1411 19.7912 10.4356 19.7912C9.72996 19.7912 9.03299 19.9463 8.39399 20.2455C7.75498 20.5447 7.18957 20.9808 6.73777 21.5227L3.02254 26.0054V8.68514C3.02714 7.1831 3.62586 5.74389 4.68797 4.68179C5.75007 3.61968 7.18928 3.02096 8.69131 3.01636H22.6452C22.9922 3.01636 23.3249 2.87853 23.5703 2.6332C23.8156 2.38787 23.9534 2.05513 23.9534 1.70818C23.9534 1.36123 23.8156 1.02849 23.5703 0.783157C23.3249 0.537826 22.9922 0.4 22.6452 0.4H8.69131C6.49396 0.4 4.3866 1.2729 2.83284 2.82666C1.27907 4.38042 0.406178 6.48778 0.406178 8.68514V29.616C0.397941 29.6445 0.397941 29.6747 0.406178 29.7032C0.42915 31.8854 1.31218 33.9705 2.86346 35.5054C4.41474 37.0404 6.50899 37.9013 8.69131 37.9011H29.6222C31.7955 37.8968 33.8801 37.0387 35.4267 35.5117C36.9732 33.9847 37.8579 31.9112 37.8899 29.7381V15.6621C37.8855 15.3195 37.7486 14.9919 37.508 14.748C37.2674 14.5041 36.9416 14.3629 36.5991 14.3539C36.2536 14.3584 35.9235 14.4977 35.6791 14.7421C35.4348 14.9864 35.2955 15.3165 35.291 15.6621V26.1275ZM15.6683 26.8427C15.4781 26.8423 15.2904 26.7998 15.1185 26.7184C14.9466 26.637 14.7948 26.5186 14.6741 26.3717L12.0403 23.1972C11.8292 22.9621 11.5711 22.7741 11.2826 22.6454C10.9941 22.5166 10.6817 22.4501 10.3658 22.4501C10.0499 22.4501 9.7375 22.5166 9.449 22.6454C9.1605 22.7741 8.90234 22.9621 8.69131 23.1972L3.05742 30.0521C3.16702 31.4727 3.80758 32.8 4.85159 33.7696C5.89559 34.7393 7.26647 35.2802 8.69131 35.2848H29.6222C31.0443 35.2612 32.4053 34.7021 33.4334 33.7192C34.4616 32.7364 35.0813 31.402 35.1689 29.9823L25.9767 19.5169C25.7633 19.292 25.5063 19.113 25.2214 18.9906C24.9365 18.8683 24.6297 18.8052 24.3197 18.8052C24.0097 18.8052 23.7029 18.8683 23.418 18.9906C23.1331 19.113 22.8761 19.292 22.6627 19.5169L16.6625 26.3892C16.3999 26.66 16.0449 26.8219 15.6683 26.8427ZM22.9582 19.7865L16.95 26.668C16.6174 27.011 16.1674 27.2157 15.6903 27.2421L15.6674 27.2433C15.4183 27.2428 15.1724 27.1866 14.9472 27.0799C14.7225 26.9734 14.524 26.8187 14.3659 26.6267C14.3656 26.6264 14.3661 26.627 14.3659 26.6267L11.7376 23.4589C11.565 23.2682 11.3545 23.1155 11.1196 23.0107C10.8824 22.9048 10.6255 22.8501 10.3658 22.8501C10.106 22.8501 9.84919 22.9048 9.61198 23.0107C9.37729 23.1154 9.16702 23.2678 8.99454 23.4582L3.4708 30.1791C3.60626 31.4397 4.19222 32.6113 5.1238 33.4765C6.09414 34.3778 7.36829 34.8806 8.69259 34.8848H29.6187C30.9391 34.862 32.2024 34.3427 33.157 33.4301C34.0732 32.5543 34.6403 31.378 34.7571 30.1196L25.6815 19.7869C25.5065 19.604 25.2963 19.4581 25.0635 19.3582C24.8285 19.2573 24.5755 19.2052 24.3197 19.2052C24.0639 19.2052 23.8109 19.2573 23.5759 19.3582C23.3433 19.4581 23.1333 19.6037 22.9582 19.7865Z" fill="#AD7955"/>
<path d="M5.63916 10.4294C5.63916 11.3781 5.92048 12.3055 6.44754 13.0943C6.97461 13.8831 7.72374 14.4979 8.60022 14.8609C9.47669 15.224 10.4411 15.319 11.3716 15.1339C12.3021 14.9488 13.1567 14.492 13.8276 13.8212C14.4984 13.1503 14.9552 12.2956 15.1403 11.3652C15.3254 10.4347 15.2304 9.47027 14.8674 8.5938C14.5043 7.71732 13.8895 6.96819 13.1007 6.44112C12.3119 5.91406 11.3845 5.63274 10.4358 5.63274C9.16367 5.63274 7.94362 6.1381 7.04407 7.03765C6.14452 7.9372 5.63916 9.15725 5.63916 10.4294ZM12.6161 10.4294C12.6161 10.8606 12.4882 11.2822 12.2487 11.6407C12.0091 11.9993 11.6686 12.2787 11.2702 12.4437C10.8718 12.6088 10.4334 12.6519 10.0105 12.5678C9.58753 12.4837 9.19903 12.276 8.89411 11.9711C8.58919 11.6662 8.38154 11.2777 8.29741 10.8548C8.21329 10.4318 8.25646 9.99343 8.42148 9.59504C8.58651 9.19664 8.86596 8.85612 9.22451 8.61655C9.58306 8.37697 10.0046 8.2491 10.4358 8.2491C11.0141 8.2491 11.5686 8.47881 11.9775 8.8877C12.3864 9.29658 12.6161 9.85115 12.6161 10.4294ZM26.134 8.2491H30.0585V12.1736C30.0585 12.5206 30.1963 12.8533 30.4417 13.0987C30.687 13.344 31.0197 13.4818 31.3667 13.4818C31.7136 13.4818 32.0464 13.344 32.2917 13.0987C32.537 12.8533 32.6749 12.5206 32.6749 12.1736V8.2491H36.5994C36.9464 8.2491 37.2791 8.11128 37.5244 7.86594C37.7698 7.62061 37.9076 7.28787 37.9076 6.94092C37.9076 6.59397 37.7698 6.26123 37.5244 6.0159C37.2791 5.77057 36.9464 5.63274 36.5994 5.63274H32.6749V1.7082C32.6749 1.36125 32.537 1.02851 32.2917 0.783181C32.0464 0.53785 31.7136 0.400024 31.3667 0.400024C31.0197 0.400024 30.687 0.53785 30.4417 0.783181C30.1963 1.02851 30.0585 1.36125 30.0585 1.7082V5.63274H26.134C25.787 5.63274 25.4543 5.77057 25.209 6.0159C24.9636 6.26123 24.8258 6.59397 24.8258 6.94092C24.8258 7.28787 24.9636 7.62061 25.209 7.86594C25.4543 8.11128 25.787 8.2491 26.134 8.2491Z" fill="#AD7955"/>
<path fill-rule="evenodd" clip-rule="evenodd" d="M6.11493 13.3166C5.54391 12.462 5.23914 11.4573 5.23914 10.4295C5.23914 9.05126 5.78664 7.72947 6.7612 6.75491C7.73576 5.78034 9.05755 5.23284 10.4358 5.23284C11.4636 5.23284 12.4683 5.53762 13.3229 6.10863C14.1775 6.67965 14.8436 7.49126 15.2369 8.44082C15.6302 9.39039 15.7331 10.4353 15.5326 11.4433C15.3321 12.4514 14.8372 13.3773 14.1104 14.1041C13.3836 14.8309 12.4577 15.3258 11.4496 15.5263C10.4416 15.7268 9.39668 15.6239 8.44712 15.2306C7.49755 14.8373 6.68595 14.1712 6.11493 13.3166ZM11.9161 11.4186C12.1117 11.1258 12.2161 10.7816 12.2161 10.4295C12.2161 9.95733 12.0285 9.50451 11.6947 9.17064C11.3608 8.83677 10.908 8.6492 10.4358 8.6492C10.0837 8.6492 9.73948 8.75361 9.44671 8.94923C9.15394 9.14485 8.92576 9.4229 8.79101 9.74821C8.65627 10.0735 8.62101 10.4315 8.6897 10.7768C8.7584 11.1222 8.92795 11.4394 9.17693 11.6884C9.42591 11.9373 9.74313 12.1069 10.0885 12.1756C10.4338 12.2443 10.7918 12.209 11.1171 12.0743C11.4424 11.9395 11.7204 11.7113 11.9161 11.4186ZM29.6585 8.6492H26.1339C25.6809 8.6492 25.2464 8.46923 24.9261 8.14888C24.6057 7.82854 24.4258 7.39406 24.4258 6.94102C24.4258 6.48798 24.6057 6.0535 24.9261 5.73315C25.2464 5.41281 25.6809 5.23284 26.1339 5.23284H29.6585V1.7083C29.6585 1.25526 29.8385 0.820783 30.1588 0.500436C30.4791 0.18009 30.9136 0.00012207 31.3667 0.00012207C31.8197 0.00012207 32.2542 0.18009 32.5745 0.500436C32.8949 0.820783 33.0748 1.25526 33.0748 1.7083V5.23284H36.5994C37.0524 5.23284 37.4869 5.41281 37.8073 5.73315C38.1276 6.0535 38.3076 6.48798 38.3076 6.94102C38.3076 7.39406 38.1276 7.82854 37.8073 8.14888C37.4869 8.46923 37.0524 8.6492 36.5994 8.6492H33.0748V12.1737C33.0748 12.6268 32.8949 13.0613 32.5745 13.3816C32.2542 13.7019 31.8197 13.8819 31.3667 13.8819C30.9136 13.8819 30.4791 13.7019 30.1588 13.3816C29.8385 13.0613 29.6585 12.6268 29.6585 12.1737V8.6492ZM6.44752 13.0944C5.92045 12.3056 5.63914 11.3782 5.63914 10.4295C5.63914 9.15734 6.1445 7.9373 7.04404 7.03775C7.94359 6.1382 9.16364 5.63284 10.4358 5.63284C11.3845 5.63284 12.3119 5.91416 13.1007 6.44122C13.8895 6.96829 14.5043 7.71742 14.8673 8.5939C15.2304 9.47037 15.3254 10.4348 15.1403 11.3653C14.9552 12.2957 14.4984 13.1504 13.8275 13.8212C13.1567 14.4921 12.302 14.9489 11.3716 15.134C10.4411 15.3191 9.47667 15.2241 8.60019 14.861C7.72372 14.498 6.97458 13.8832 6.44752 13.0944ZM12.2486 11.6408C12.4882 11.2823 12.6161 10.8607 12.6161 10.4295C12.6161 9.85125 12.3864 9.29668 11.9775 8.88779C11.5686 8.47891 11.014 8.2492 10.4358 8.2492C10.0046 8.2492 9.58303 8.37707 9.22448 8.61664C8.86594 8.85622 8.58648 9.19674 8.42146 9.59513C8.25644 9.99353 8.21326 10.4319 8.29739 10.8549C8.38152 11.2778 8.58917 11.6663 8.89409 11.9712C9.19901 12.2761 9.5875 12.4838 10.0104 12.5679C10.4334 12.652 10.8718 12.6089 11.2702 12.4438C11.6686 12.2788 12.0091 11.9994 12.2486 11.6408ZM26.1339 8.2492C25.787 8.2492 25.4543 8.11137 25.2089 7.86604C24.9636 7.62071 24.8258 7.28797 24.8258 6.94102C24.8258 6.59407 24.9636 6.26133 25.2089 6.016C25.4543 5.77067 25.787 5.63284 26.1339 5.63284H30.0585V1.7083C30.0585 1.36135 30.1963 1.02861 30.4416 0.783279C30.687 0.537948 31.0197 0.400122 31.3667 0.400122C31.7136 0.400122 32.0464 0.537948 32.2917 0.783279C32.537 1.02861 32.6748 1.36135 32.6748 1.7083V5.63284H36.5994C36.9463 5.63284 37.2791 5.77067 37.5244 6.016C37.7697 6.26133 37.9076 6.59407 37.9076 6.94102C37.9076 7.28797 37.7697 7.62071 37.5244 7.86604C37.2791 8.11137 36.9463 8.2492 36.5994 8.2492H32.6748V12.1737C32.6748 12.5207 32.537 12.8534 32.2917 13.0988C32.0464 13.3441 31.7136 13.4819 31.3667 13.4819C31.0197 13.4819 30.687 13.3441 30.4416 13.0988C30.1963 12.8534 30.0585 12.5207 30.0585 12.1737V8.2492H26.1339Z" fill="#AD7955"/>
</svg>
