<svg width="13" height="13" viewBox="0 0 13 13" fill="none" xmlns="http://www.w3.org/2000/svg">
<path d="M10.0982 5.41783L4.14625 2.05985C3.95187 1.94876 3.73154 1.89115 3.50767 1.89286C3.2838 1.89457 3.06438 1.95555 2.87172 2.06959C2.68403 2.17693 2.52809 2.33205 2.41975 2.51917C2.31141 2.70629 2.25453 2.91876 2.25488 3.13498V9.85094C2.25453 10.0672 2.31141 10.2796 2.41975 10.4668C2.52809 10.6539 2.68403 10.809 2.87172 10.9163C3.0644 11.0303 3.28381 11.0913 3.50767 11.093C3.73153 11.0947 3.95186 11.0371 4.14625 10.9261L10.0982 7.5681C10.2902 7.46177 10.4501 7.30598 10.5615 7.11691C10.673 6.92785 10.7317 6.71241 10.7317 6.49296C10.7317 6.27352 10.673 6.05808 10.5615 5.86902C10.4501 5.67995 10.2902 5.52416 10.0982 5.41783Z" fill="#EEEEEE"/>
</svg>
