<svg width="24" height="24" viewBox="0 0 24 24" fill="none" xmlns="http://www.w3.org/2000/svg">
<path d="M20.8008 10.8006L13.0229 10.8241V3.19921C13.0232 3.04163 12.9924 2.88554 12.9323 2.73989C12.8721 2.59425 12.7838 2.46191 12.6724 2.35049C12.5609 2.23906 12.4286 2.15074 12.283 2.0906C12.1373 2.03045 11.9812 1.99966 11.8236 2C11.6661 1.99966 11.51 2.03045 11.3643 2.0906C11.2187 2.15074 11.0864 2.23906 10.9749 2.35049C10.8635 2.46191 10.7752 2.59425 10.715 2.73989C10.6549 2.88554 10.6241 3.04163 10.6244 3.19921L10.648 10.8008H3.19921C3.04163 10.8005 2.88554 10.8312 2.73989 10.8914C2.59425 10.9515 2.46191 11.0399 2.35049 11.1513C2.23906 11.2627 2.15074 11.395 2.0906 11.5407C2.03045 11.6863 1.99966 11.8424 2 12C1.99966 12.1576 2.03045 12.3136 2.0906 12.4593C2.15075 12.6049 2.23907 12.7372 2.3505 12.8486C2.46193 12.9601 2.59426 13.0484 2.73991 13.1085C2.88555 13.1686 3.04164 13.1994 3.19921 13.199H10.6362V20.8008C10.6359 20.9584 10.6667 21.1144 10.7269 21.2601C10.787 21.4057 10.8753 21.538 10.9867 21.6495C11.0982 21.7609 11.2305 21.8492 11.3761 21.9093C11.5218 21.9695 11.6778 22.0003 11.8354 22C11.993 22.0003 12.1491 21.9695 12.2947 21.9093C12.4403 21.8492 12.5726 21.7609 12.6841 21.6495C12.7955 21.538 12.8838 21.4057 12.944 21.2601C13.0041 21.1144 13.0349 20.9584 13.0346 20.8008V13.1992H20.8008C20.9584 13.1995 21.1144 13.1687 21.2601 13.1086C21.4057 13.0484 21.538 12.9601 21.6495 12.8487C21.7609 12.7372 21.8492 12.6049 21.9093 12.4593C21.9695 12.3136 22.0003 12.1576 22 12C21.9997 11.682 21.8733 11.3771 21.6485 11.1523C21.4236 10.9274 21.1188 10.8009 20.8008 10.8006Z" fill="white"/>
</svg>
