<svg width="18" height="18" viewBox="0 0 18 18" fill="none" xmlns="http://www.w3.org/2000/svg">
<g clip-path="url(#clip0_7638_1438)">
<path d="M9.84668 13.9995H8.52832V12.6811H9.84668V13.9995ZM9.84668 10.1481C11.1213 9.83966 12.0044 8.68333 11.954 7.37568C11.8993 5.95174 10.731 4.79385 9.29442 4.74009C8.52687 4.71114 7.80198 4.98604 7.25404 5.5137C6.71547 6.03251 6.41894 6.72844 6.41894 7.47363H7.7373C7.7373 7.08999 7.89036 6.73113 8.16846 6.46335C8.45612 6.18628 8.83813 6.0426 9.24498 6.05742C9.99697 6.08574 10.6082 6.68694 10.6366 7.42635C10.663 8.11541 10.1875 8.72423 9.50556 8.87386C8.9301 9.00016 8.52832 9.49742 8.52832 10.0832V11.3628H9.84668V10.1481ZM15.1537 15.1537C16.7474 13.5601 17.625 11.4412 17.625 9.1875C17.625 6.93382 16.7474 4.81487 15.1537 3.22132C13.5601 1.62763 11.4412 0.75 9.1875 0.75C6.93382 0.75 4.81487 1.62763 3.22132 3.22132C1.62763 4.81487 0.75 6.93382 0.75 9.1875C0.75 11.4412 1.62763 13.5601 3.22132 15.1537C4.81487 16.7474 6.93382 17.625 9.1875 17.625C11.4412 17.625 13.5601 16.7474 15.1537 15.1537ZM16.3066 9.1875C16.3066 13.1129 13.1129 16.3066 9.1875 16.3066C5.26208 16.3066 2.06836 13.1129 2.06836 9.1875C2.06836 5.26208 5.26208 2.06836 9.1875 2.06836C13.1129 2.06836 16.3066 5.26208 16.3066 9.1875Z" fill="#999999"/>
</g>
<defs>
<clipPath id="clip0_7638_1438">
<rect width="18" height="18" fill="white"/>
</clipPath>
</defs>
</svg>
