<svg width="24" height="24" viewBox="0 0 24 24" fill="none" xmlns="http://www.w3.org/2000/svg">
<g clip-path="url(#clip0_7638_3781)">
<path d="M18.7334 5.92775C18.7193 5.82775 18.6293 5.77241 18.555 5.76631C18.007 5.7262 17.459 5.68641 16.9109 5.64693C16.9109 5.64693 15.8206 4.59248 15.7009 4.47577C15.5811 4.35912 15.3473 4.3946 15.2565 4.42063C15.2431 4.42446 15.0183 4.49207 14.6463 4.60419C14.2821 3.58323 13.6393 2.64501 12.5085 2.64501C12.4773 2.64501 12.4451 2.64625 12.413 2.64803C12.0914 2.23371 11.693 2.05371 11.3489 2.05371C8.71463 2.05371 7.45611 5.26159 7.06152 6.89172C6.03791 7.2007 5.31073 7.42035 5.21785 7.44878C4.64649 7.62337 4.62842 7.6409 4.5534 8.16535C4.49694 8.56241 3.00195 19.8247 3.00195 19.8247L14.6512 21.9508L20.9631 20.6207C20.9631 20.6207 18.7473 6.02775 18.7334 5.92775ZM14.0025 4.79816L13.0168 5.09535C13.0171 5.02768 13.0175 4.96111 13.0175 4.8883C13.0175 4.25378 12.9271 3.74289 12.782 3.33789C13.3647 3.40912 13.7527 4.05494 14.0025 4.79816ZM12.0592 3.46371C12.2212 3.85912 12.3265 4.42659 12.3265 5.19234C12.3265 5.23152 12.3262 5.26734 12.3258 5.30357C11.6848 5.497 10.9882 5.707 10.2901 5.91768C10.682 4.44398 11.4168 3.7322 12.0592 3.46371ZM11.2765 2.742C11.3902 2.742 11.5048 2.7796 11.6144 2.85309C10.7701 3.24008 9.86523 4.21474 9.48308 6.16111L7.87391 6.64659C8.32152 5.162 9.38443 2.742 11.2765 2.742Z" fill="#AD7955"/>
<path d="M18.5556 5.76621C18.0076 5.7261 17.4595 5.6863 16.9115 5.64683C16.9115 5.64683 15.8211 4.59238 15.7015 4.47566C15.6567 4.43224 15.5963 4.40998 15.5331 4.40039L14.6523 21.9506L20.9637 20.6206C20.9637 20.6206 18.7479 6.02765 18.734 5.92765C18.7199 5.82765 18.6299 5.77231 18.5556 5.76621Z" fill="#8F5334"/>
<path d="M12.5093 9.16333L11.731 11.4185C11.731 11.4185 11.0491 11.064 10.2132 11.064C8.98783 11.064 8.92616 11.8131 8.92616 12.0019C8.92616 13.0319 11.6824 13.4266 11.6824 15.8392C11.6824 17.7373 10.4465 18.9596 8.78013 18.9596C6.78044 18.9596 5.75781 17.7472 5.75781 17.7472L6.29324 16.024C6.29324 16.024 7.34441 16.9031 8.23141 16.9031C8.81099 16.9031 9.04675 16.4585 9.04675 16.1337C9.04675 14.7902 6.7855 14.7303 6.7855 12.5225C6.7855 10.6644 8.15463 8.86621 10.9183 8.86621C11.9832 8.86621 12.5093 9.16333 12.5093 9.16333Z" fill="white"/>
</g>
<defs>
<clipPath id="clip0_7638_3781">
<rect width="18" height="20" fill="white" transform="translate(3 2)"/>
</clipPath>
</defs>
</svg>
