<svg width="132" height="32" viewBox="0 0 132 32" fill="none" xmlns="http://www.w3.org/2000/svg">
<path fill-rule="evenodd" clip-rule="evenodd" d="M11.1734 3.5C10.2262 3.5 9.31782 3.87626 8.64807 4.54602C7.97831 5.21577 7.60205 6.12416 7.60205 7.07133C7.60205 8.21342 8.05365 9.38952 8.84091 10.5628C9.62623 11.7333 10.6969 12.8272 11.8076 13.7777C12.9133 14.724 14.0252 15.4997 14.8637 16.0398C15.1622 16.2322 15.4245 16.3936 15.6376 16.5213C15.8506 16.3936 16.1129 16.2322 16.4115 16.0398C17.25 15.4997 18.3619 14.724 19.4676 13.7777C20.5783 12.8272 21.6489 11.7333 22.4342 10.5628C23.2215 9.38952 23.6731 8.21342 23.6731 7.07133C23.6731 6.12416 23.2968 5.21577 22.6271 4.54602C21.9573 3.87626 21.0489 3.5 20.1018 3.5C18.5463 3.5 17.3049 4.3335 16.7944 5.58063C16.6022 6.05028 16.1451 6.35709 15.6376 6.35709C15.1301 6.35709 14.673 6.05028 14.4807 5.58063C13.9702 4.3335 12.7289 3.5 11.1734 3.5ZM15.6376 17.964C15.045 19.0646 15.0447 19.0644 15.0443 19.0642L15.0411 19.0625L15.0339 19.0586L15.0096 19.0453C14.9891 19.0341 14.96 19.018 14.9229 18.9972C14.8486 18.9556 14.7423 18.8953 14.6084 18.8171C14.3408 18.6609 13.9623 18.433 13.5097 18.1415C12.6072 17.56 11.3977 16.7174 10.1821 15.6771C8.97136 14.641 7.72064 13.3802 6.76492 11.9558C5.81114 10.5343 5.10205 8.87562 5.10205 7.07133C5.10205 5.46111 5.74171 3.91685 6.8803 2.77825C8.0189 1.63966 9.56316 1 11.1734 1C12.9074 1 14.5121 1.66809 15.6376 2.84654C16.7631 1.66809 18.3677 1 20.1018 1C21.712 1 23.2563 1.63966 24.3949 2.77825C25.5334 3.91685 26.1731 5.46111 26.1731 7.07133C26.1731 8.87562 25.464 10.5343 24.5102 11.9558C23.5545 13.3802 22.3038 14.641 21.0931 15.6771C19.8774 16.7174 18.6679 17.56 17.7654 18.1415C17.3129 18.433 16.9344 18.6609 16.6668 18.8171C16.5329 18.8953 16.4265 18.9556 16.3523 18.9972C16.3152 19.018 16.2861 19.0341 16.2655 19.0453L16.2412 19.0586L16.234 19.0625L16.2317 19.0638C16.2314 19.0639 16.2302 19.0646 15.6376 17.964ZM15.6376 17.964L16.2302 19.0646C15.8602 19.2638 15.4143 19.2634 15.0443 19.0642L15.6376 17.964Z" fill="#AD7955"/>
<path d="M40.95 24.352C40.3927 24.352 39.8647 24.2713 39.366 24.11C38.8673 23.9633 38.4127 23.736 38.002 23.428C37.606 23.1053 37.2687 22.702 36.99 22.218C36.7113 21.734 36.506 21.1547 36.374 20.48H39.432C39.5053 20.92 39.6813 21.2427 39.96 21.448C40.2387 21.6533 40.5687 21.756 40.95 21.756C41.302 21.756 41.6027 21.668 41.852 21.492C42.1013 21.316 42.226 21.074 42.226 20.766C42.226 20.3847 42.0793 20.1133 41.786 19.952C41.5073 19.776 41.06 19.622 40.444 19.49C39.9307 19.3727 39.4393 19.2187 38.97 19.028C38.5153 18.8373 38.112 18.5953 37.76 18.302C37.408 18.0087 37.122 17.6567 36.902 17.246C36.6967 16.8207 36.594 16.322 36.594 15.75C36.594 15.2367 36.6893 14.7747 36.88 14.364C37.0853 13.9387 37.364 13.572 37.716 13.264C38.068 12.956 38.486 12.7213 38.97 12.56C39.454 12.384 39.9893 12.296 40.576 12.296C41.0893 12.296 41.5807 12.3693 42.05 12.516C42.534 12.648 42.9667 12.868 43.348 13.176C43.7293 13.4693 44.0593 13.8507 44.338 14.32C44.6167 14.7747 44.822 15.3247 44.954 15.97H41.94C41.852 15.5887 41.6907 15.31 41.456 15.134C41.236 14.9433 40.9647 14.848 40.642 14.848C40.3487 14.848 40.092 14.9287 39.872 15.09C39.652 15.2367 39.542 15.4567 39.542 15.75C39.542 16.0873 39.6887 16.344 39.982 16.52C40.29 16.6813 40.7887 16.8427 41.478 17.004C41.9767 17.1213 42.446 17.2753 42.886 17.466C43.3407 17.642 43.7367 17.8767 44.074 18.17C44.4113 18.4633 44.6753 18.8153 44.866 19.226C45.0713 19.6367 45.174 20.128 45.174 20.7C45.174 21.2867 45.0567 21.8073 44.822 22.262C44.602 22.7167 44.3013 23.098 43.92 23.406C43.5387 23.714 43.0913 23.9487 42.578 24.11C42.0647 24.2713 41.522 24.352 40.95 24.352ZM47.0498 12.648H50.4598V14.188C50.8852 13.6013 51.3985 13.1393 51.9998 12.802C52.6158 12.4647 53.2832 12.296 54.0018 12.296C54.7352 12.296 55.4245 12.45 56.0698 12.758C56.7152 13.0513 57.2798 13.4693 57.7638 14.012C58.2625 14.5547 58.6512 15.1927 58.9298 15.926C59.2232 16.6447 59.3698 17.4367 59.3698 18.302C59.3698 19.1673 59.2232 19.974 58.9298 20.722C58.6512 21.4553 58.2625 22.0933 57.7638 22.636C57.2798 23.164 56.7152 23.582 56.0698 23.89C55.4245 24.198 54.7352 24.352 54.0018 24.352C53.2832 24.352 52.6158 24.1833 51.9998 23.846C51.3985 23.494 50.8852 23.0247 50.4598 22.438V27.74H47.0498V12.648ZM50.4818 18.302C50.4818 18.698 50.5552 19.0647 50.7018 19.402C50.8485 19.7393 51.0465 20.04 51.2958 20.304C51.5452 20.5533 51.8312 20.7513 52.1538 20.898C52.4912 21.0447 52.8505 21.118 53.2318 21.118C53.6132 21.118 53.9725 21.052 54.3098 20.92C54.6472 20.7733 54.9405 20.5753 55.1898 20.326C55.4392 20.062 55.6372 19.7613 55.7838 19.424C55.9305 19.0867 56.0038 18.72 56.0038 18.324C56.0038 17.9427 55.9305 17.5833 55.7838 17.246C55.6372 16.9087 55.4392 16.6153 55.1898 16.366C54.9405 16.1167 54.6472 15.9187 54.3098 15.772C53.9725 15.6253 53.6132 15.552 53.2318 15.552C52.8505 15.552 52.4912 15.6253 52.1538 15.772C51.8312 15.9187 51.5452 16.1167 51.2958 16.366C51.0465 16.6153 50.8485 16.9087 50.7018 17.246C50.5552 17.5687 50.4818 17.9207 50.4818 18.302ZM66.4697 24.352C65.619 24.352 64.8197 24.1907 64.0717 23.868C63.3237 23.5453 62.6637 23.1127 62.0917 22.57C61.5343 22.0127 61.0943 21.3673 60.7717 20.634C60.449 19.9007 60.2877 19.116 60.2877 18.28C60.2877 17.4587 60.449 16.6887 60.7717 15.97C61.0943 15.2367 61.5343 14.5987 62.0917 14.056C62.6637 13.5133 63.3237 13.088 64.0717 12.78C64.8197 12.4573 65.619 12.296 66.4697 12.296C67.3203 12.296 68.1123 12.4573 68.8457 12.78C69.5937 13.088 70.2463 13.5133 70.8037 14.056C71.361 14.5987 71.801 15.2367 72.1237 15.97C72.4463 16.6887 72.6077 17.4587 72.6077 18.28C72.6077 19.116 72.4463 19.908 72.1237 20.656C71.801 21.3893 71.361 22.0347 70.8037 22.592C70.2463 23.1347 69.5937 23.5673 68.8457 23.89C68.1123 24.198 67.3203 24.352 66.4697 24.352ZM63.7417 18.302C63.7417 18.6833 63.8077 19.0427 63.9397 19.38C64.0863 19.7173 64.2843 20.0107 64.5337 20.26C64.783 20.5093 65.069 20.7073 65.3917 20.854C65.729 21.0007 66.081 21.074 66.4477 21.074C66.829 21.074 67.181 21.008 67.5037 20.876C67.841 20.7293 68.1343 20.5313 68.3837 20.282C68.633 20.0327 68.8237 19.7393 68.9557 19.402C69.1023 19.0647 69.1757 18.698 69.1757 18.302C69.1757 17.9207 69.1023 17.5687 68.9557 17.246C68.809 16.9233 68.611 16.6373 68.3617 16.388C68.127 16.1387 67.841 15.948 67.5037 15.816C67.181 15.6693 66.829 15.596 66.4477 15.596C66.081 15.596 65.729 15.6693 65.3917 15.816C65.069 15.948 64.783 16.1387 64.5337 16.388C64.2843 16.6373 64.0863 16.9233 63.9397 17.246C63.8077 17.5687 63.7417 17.9207 63.7417 18.302ZM77.7465 12.648V14.694C78.0252 13.99 78.4579 13.4327 79.0445 13.022C79.6459 12.6113 80.4159 12.4207 81.3545 12.45V15.97C80.1079 15.8527 79.2205 16.058 78.6925 16.586C78.1645 17.114 77.9005 17.95 77.9005 19.094V24H74.4685V12.648H77.7465ZM90.9787 24.044C89.5707 24.264 88.4047 24.3007 87.4807 24.154C86.5714 24.0073 85.8454 23.6993 85.3027 23.23C84.7747 22.7607 84.4007 22.152 84.1807 21.404C83.9754 20.6413 83.8727 19.7687 83.8727 18.786V15.574H82.1347V12.648H83.8727V9.172H87.2167V12.648H90.7807V15.574H87.2167V18.368C87.2167 18.852 87.246 19.292 87.3047 19.688C87.3634 20.084 87.5174 20.4067 87.7667 20.656C88.0307 20.9053 88.412 21.0667 88.9107 21.14C89.4094 21.1987 90.0987 21.1547 90.9787 21.008V24.044ZM96.2451 7.94V14.232C96.6264 13.616 97.1104 13.1467 97.6971 12.824C98.2984 12.4867 98.9658 12.318 99.6991 12.318C100.227 12.318 100.733 12.406 101.217 12.582C101.701 12.758 102.126 13.0513 102.493 13.462C102.86 13.8727 103.153 14.4007 103.373 15.046C103.593 15.6913 103.703 16.4907 103.703 17.444V24H100.271V17.752C100.271 16.872 100.11 16.2487 99.7871 15.882C99.4644 15.5007 99.0171 15.31 98.4451 15.31C97.9024 15.31 97.4184 15.4933 96.9931 15.86C96.5678 16.212 96.3184 16.784 96.2451 17.576V24H92.8131V7.94H96.2451ZM113.392 24V22.658C113.026 23.2153 112.556 23.6407 111.984 23.934C111.427 24.2127 110.796 24.352 110.092 24.352C109.535 24.352 109.014 24.2567 108.53 24.066C108.046 23.89 107.621 23.604 107.254 23.208C106.888 22.7973 106.602 22.2767 106.396 21.646C106.191 21.0153 106.088 20.2527 106.088 19.358V12.648H109.498V18.852C109.498 20.4947 110.092 21.316 111.28 21.316C111.852 21.316 112.344 21.118 112.754 20.722C113.165 20.3113 113.378 19.688 113.392 18.852V12.648H116.846V24H113.392ZM119.54 7.94H122.906V14.166C123.331 13.594 123.844 13.1393 124.446 12.802C125.047 12.4647 125.707 12.296 126.426 12.296C127.144 12.296 127.826 12.45 128.472 12.758C129.132 13.0513 129.704 13.4693 130.188 14.012C130.686 14.5547 131.075 15.1927 131.354 15.926C131.647 16.6447 131.794 17.4367 131.794 18.302C131.794 19.1673 131.647 19.974 131.354 20.722C131.075 21.4553 130.686 22.0933 130.188 22.636C129.704 23.164 129.132 23.582 128.472 23.89C127.826 24.198 127.144 24.352 126.426 24.352C125.707 24.352 125.047 24.1833 124.446 23.846C123.844 23.5087 123.331 23.0467 122.906 22.46V24H119.54V7.94ZM122.906 18.302C122.906 18.698 122.979 19.0647 123.126 19.402C123.272 19.7393 123.47 20.04 123.72 20.304C123.969 20.5533 124.255 20.7513 124.578 20.898C124.915 21.0447 125.274 21.118 125.656 21.118C126.037 21.118 126.396 21.052 126.734 20.92C127.071 20.7733 127.364 20.5753 127.614 20.326C127.863 20.062 128.061 19.7613 128.208 19.424C128.354 19.072 128.428 18.698 128.428 18.302C128.428 17.9207 128.354 17.5613 128.208 17.224C128.061 16.8867 127.863 16.5933 127.614 16.344C127.364 16.0947 127.071 15.8967 126.734 15.75C126.396 15.6033 126.037 15.53 125.656 15.53C125.274 15.53 124.915 15.6033 124.578 15.75C124.255 15.8967 123.969 16.0947 123.72 16.344C123.47 16.5933 123.272 16.8867 123.126 17.224C122.979 17.5613 122.906 17.9207 122.906 18.302Z" fill="white"/>
</svg>
